<?xml version="1.0" encoding="UTF-8" standalone="no"?>
<!DOCTYPE svg PUBLIC "-//W3C//DTD SVG 1.1//EN" "http://www.w3.org/Graphics/SVG/1.1/DTD/svg11.dtd">
<svg width="100%" height="100%" viewBox="0 0 1024 1024" version="1.1" xmlns="http://www.w3.org/2000/svg" xmlns:xlink="http://www.w3.org/1999/xlink" xml:space="preserve" xmlns:serif="http://www.serif.com/" style="fill-rule:evenodd;clip-rule:evenodd;stroke-linejoin:round;stroke-miterlimit:2;">
    <g transform="matrix(1,0,0,1,-2.03734,22.9903)">
        <g transform="matrix(1.0736,0,0,1.167,66.3474,275.448)">
            <rect x="0" y="0" width="834" height="366" style="fill:rgb(199,34,33);fill-rule:nonzero;"/>
        </g>
        <g transform="matrix(1.0736,0,0,1.167,127.542,341.967)">
            <path d="M0,0L214,0L214,252L147,252L147,63L90,63L90,252L0,252L0,0Z" style="fill:rgb(241,241,239);fill-rule:nonzero;"/>
        </g>
        <g transform="matrix(1.0736,0,0,1.167,674.003,341.967)">
            <path d="M0,0L210,0L210,59L95,59L95,102C99.586,101.906 99.586,101.906 104.265,101.81C114.398,101.61 124.532,101.478 134.667,101.378C140.808,101.316 146.948,101.231 153.088,101.095C159.021,100.964 164.952,100.892 170.887,100.861C173.143,100.839 175.4,100.796 177.656,100.731C198.418,100.157 198.418,100.157 205.408,106.113C214.022,115.371 211.488,131.413 211.215,143.179C211.146,146.634 211.144,150.088 211.135,153.543C211.073,163.613 210.905,173.682 210.75,183.75C210.503,206.273 210.255,228.795 210,252L0,252L0,192L130,192L130,151L0,151L0,0Z" style="fill:rgb(241,240,239);fill-rule:nonzero;"/>
        </g>
        <g transform="matrix(1.0736,0,0,1.167,399.162,340.8)">
            <path d="M0,0L86,0C85.956,8.624 85.912,17.248 85.867,26.133C85.861,32.34 85.861,38.547 85.87,44.754C85.881,52.766 85.878,60.777 85.818,68.789C85.771,75.139 85.76,81.489 85.79,87.839C85.805,91.192 85.798,94.542 85.758,97.895C85.567,115.004 87.574,127.719 95.821,142.804C97.342,145.637 98.604,148.547 99.832,151.517C100.202,152.394 100.572,153.271 100.953,154.174C101.307,155.023 101.662,155.872 102.027,156.746C102.428,157.697 102.828,158.648 103.241,159.628C104.476,162.563 105.707,165.5 106.938,168.438C107.782,170.446 108.626,172.455 109.471,174.463C110.655,177.278 111.838,180.094 113.02,182.91C114.993,187.616 116.983,192.313 119,197C121.362,194.638 122.105,192.646 123.363,189.551C123.832,188.408 124.3,187.265 124.782,186.087C125.155,185.166 125.155,185.166 125.536,184.227C126.322,182.288 127.115,180.352 127.909,178.417C129.032,175.681 130.154,172.945 131.274,170.208C133.805,164.031 136.362,157.865 138.934,151.706C139.466,150.431 139.996,149.155 140.525,147.878C141.278,146.058 142.038,144.24 142.797,142.422C143.271,141.272 143.746,140.122 144.234,138.937C145.347,136.347 146.58,133.94 148.028,131.522C155.607,118.38 155.12,105.35 155,90.527C155.008,87.906 155.019,85.285 155.033,82.663C155.061,76.516 155.049,70.368 155.022,64.221C154.99,56.519 155.012,48.817 155.035,41.115C155.075,27.41 155.034,13.706 155,0L217,0C217.241,27.809 217.241,27.809 217.293,39.742C217.329,47.857 217.37,55.972 217.453,64.087C217.519,70.636 217.554,77.184 217.569,83.733C217.58,86.221 217.602,88.709 217.634,91.196C217.814,105.486 217.31,117.018 211,130C210.203,131.92 209.414,133.844 208.641,135.773C207.847,137.642 207.05,139.509 206.25,141.375C205.797,142.438 205.345,143.501 204.878,144.597C203.257,148.4 201.63,152.2 200,156C199.505,157.153 199.505,157.153 199.001,158.33C197.915,160.862 196.829,163.394 195.742,165.926C195.181,167.233 195.181,167.233 194.609,168.567C194.23,169.451 193.851,170.335 193.46,171.245C193.076,172.14 192.692,173.035 192.297,173.957C191.514,175.78 190.732,177.603 189.949,179.426C184.644,191.784 179.393,204.163 174.212,216.574C161.545,246.91 161.545,246.91 158,254L52,254C47.369,243.001 42.764,232.029 38.375,220.938C34.383,210.888 30.312,200.874 26.172,190.885C20.208,176.497 14.409,162.048 8.688,147.563C8.309,146.604 7.93,145.646 7.54,144.659C6.467,141.941 5.395,139.223 4.324,136.504C4.002,135.687 3.68,134.87 3.348,134.028C3.052,133.276 2.756,132.523 2.452,131.748C2.194,131.094 1.937,130.439 1.671,129.764C0.344,126.276 -0.124,123.607 -0.12,119.894C-0.122,118.838 -0.123,117.782 -0.124,116.694C-0.121,115.536 -0.117,114.378 -0.114,113.185C-0.114,111.965 -0.114,110.746 -0.114,109.489C-0.113,106.144 -0.108,102.799 -0.101,99.455C-0.095,95.959 -0.095,92.464 -0.093,88.969C-0.09,82.349 -0.082,75.73 -0.072,69.111C-0.06,60.836 -0.054,52.562 -0.049,44.287C-0.039,29.525 -0.019,14.762 0,0Z" style="fill:rgb(241,241,239);fill-rule:nonzero;"/>
        </g>
    </g>
</svg>
